<svg xmlns="http://www.w3.org/2000/svg" width="40" height="40" fill="none" viewBox="0 0 40 40">
    <mask id="mask0" width="41" height="40" x="0" y="0" mask-type="alpha" maskUnits="userSpaceOnUse">
        <rect width="41" height="40" fill="#C4C4C4"/>
    </mask>
    <g mask="url(#mask0)">
        <path fill="white" fill-rule="evenodd" d="M11.663 0.976C13.863 0.976 15.61 2.414 15.61 4.204C15.61 5.45 14.725 6.543 13.417 7.074C13.191 7.168 12.011 8.721 11.751 8.779C11.435 8.839 12.034 7.399 11.663 7.433C9.552 7.4 7.805 5.961 7.805 4.204C7.805 2.414 9.552 0.976 11.663 0.976V0.976ZM24.878 17.561C22.453 17.561 20.488 19.179 20.488 21.191C20.488 22.595 21.484 23.824 22.973 24.398C23.209 24.527 24.536 26.274 24.878 26.339C25.184 26.407 24.51 24.787 24.878 24.82C27.303 24.787 29.268 23.17 29.268 21.19C29.268 19.179 27.303 17.561 24.878 17.561ZM26.341 5.854C24.186 5.854 22.439 7.312 22.439 9.114C22.439 10.392 23.324 11.5 24.629 12.076C24.859 12.134 26.323 13.598 26.627 13.656C26.899 13.718 26.014 12.369 26.341 12.373C28.497 12.369 30.244 10.911 30.244 9.113C30.244 7.313 28.497 5.853 26.341 5.853V5.854ZM11.707 24.39C10.091 24.39 8.78 25.484 8.78 26.835C8.78 27.795 9.444 28.625 10.422 29.057C10.595 29.101 11.693 30.198 11.922 30.242C12.125 30.288 11.462 29.277 11.707 29.279C13.324 29.277 14.634 28.183 14.634 26.835C14.634 25.485 13.324 24.39 11.707 24.39ZM7.757 15.61C9.421 15.61 10.732 16.704 10.732 18.09C10.732 19.014 10.068 19.845 9.1 20.272C8.917 20.32 7.819 21.418 7.66 21.462C7.387 21.508 8.05 20.497 7.757 20.47C6.188 20.497 4.878 19.403 4.878 18.09C4.878 16.704 6.188 15.61 7.757 15.61ZM16.05 18.537C17.445 18.537 18.537 19.448 18.537 20.527C18.537 21.373 17.983 22.066 17.197 22.418C17.025 22.462 16.109 23.377 15.954 23.413C15.749 23.451 16.302 22.609 16.05 22.617C14.75 22.609 13.659 21.697 13.659 20.527C13.659 19.448 14.75 18.537 16.049 18.537H16.05ZM4.39 6.83C6.276 6.83 7.805 8.105 7.805 9.647C7.805 10.8 7.03 11.77 5.942 12.247C5.688 12.325 4.407 13.605 4.183 13.657C3.903 13.71 4.676 12.53 4.39 12.573C2.504 12.53 0.976 11.254 0.976 9.647C0.976 8.105 2.504 6.829 4.39 6.829V6.83ZM36.098 8.78C34.481 8.78 33.171 9.874 33.171 11.196C33.171 12.184 33.835 13.016 34.767 13.426C34.985 13.491 36.084 14.589 36.275 14.633C36.515 14.678 35.852 13.667 36.098 13.703C37.714 13.667 39.024 12.573 39.024 11.196C39.024 9.874 37.714 8.78 36.098 8.78V8.78ZM21.463 0C19.847 0 18.537 1.094 18.537 2.415C18.537 3.404 19.201 4.235 20.133 4.645C20.351 4.711 21.449 5.808 21.641 5.852C21.881 5.898 21.218 4.887 21.463 4.923C23.08 4.887 24.39 3.793 24.39 2.415C24.39 1.094 23.08 0 21.463 0ZM24.339 28.293C26.007 28.293 27.317 29.387 27.317 30.74C27.317 31.697 26.653 32.528 25.674 32.974C25.503 33.004 24.404 34.101 24.236 34.144C23.972 34.191 24.636 33.179 24.339 33.187C22.774 33.179 21.463 32.086 21.463 30.74C21.463 29.387 22.773 28.293 24.339 28.293V28.293ZM18.097 8.78C16.163 8.78 14.634 10.057 14.634 11.592C14.634 12.752 15.409 13.722 16.558 14.202C16.751 14.276 18.033 15.556 18.289 15.608C18.537 15.661 17.763 14.482 18.097 14.504C19.935 14.482 21.463 13.205 21.463 11.592C21.463 10.057 19.935 8.78 18.097 8.78ZM15.574 38.049C16.149 38.049 16.585 38.413 16.585 38.874C16.585 39.184 16.365 39.46 16.007 39.624C15.981 39.619 15.614 39.984 15.574 39.999C15.47 40.015 15.692 39.678 15.574 39.699C15.071 39.678 14.634 39.313 14.634 38.874C14.634 38.414 15.071 38.049 15.574 38.049V38.049ZM20.435 34.146C19.41 34.146 18.537 34.876 18.537 35.772C18.537 36.415 18.979 36.97 19.591 37.289C19.746 37.287 20.478 38.019 20.646 38.048C20.766 38.078 20.324 37.404 20.436 37.398C21.566 37.404 22.439 36.675 22.439 35.772C22.439 34.876 21.566 34.146 20.435 34.146V34.146ZM29.708 24.39C31.103 24.39 32.195 25.302 32.195 26.38C32.195 27.227 31.642 27.92 30.856 28.272C30.683 28.316 29.768 29.23 29.613 29.267C29.408 29.305 29.96 28.462 29.708 28.471C28.409 28.462 27.318 27.551 27.318 26.381C27.318 25.301 28.409 24.391 29.708 24.391V24.39ZM17.561 28.293C18.639 28.293 19.512 29.022 19.512 29.91C19.512 30.562 19.07 31.116 18.397 31.338C18.303 31.433 17.57 32.165 17.468 32.194C17.282 32.224 17.725 31.551 17.561 31.528C16.483 31.551 15.61 30.821 15.61 29.91C15.61 29.022 16.483 28.293 17.561 28.293V28.293ZM5.854 24.39C4.776 24.39 3.902 25.12 3.902 25.972C3.902 26.66 4.345 27.214 5.032 27.448C5.112 27.531 5.844 28.262 5.956 28.292C6.132 28.322 5.69 27.648 5.854 27.659C6.931 27.648 7.804 26.919 7.804 25.972C7.804 25.12 6.931 24.39 5.854 24.39ZM1.951 14.634C0.874 14.634 0 15.364 0 16.216C0 16.903 0.443 17.457 1.13 17.692C1.21 17.775 1.942 18.506 2.054 18.536C2.23 18.566 1.788 17.892 1.951 17.903C3.029 17.892 3.902 17.163 3.902 16.216C3.902 15.363 3.029 14.634 1.952 14.634H1.951ZM1.951 20.488C2.491 20.488 2.927 20.852 2.927 21.283C2.927 21.623 2.706 21.9 2.369 22.005C2.322 22.058 1.956 22.424 1.882 22.439C1.812 22.454 2.033 22.117 1.952 22.149C1.412 22.117 0.976 21.752 0.976 21.283C0.976 20.853 1.412 20.488 1.951 20.488V20.488ZM28.293 0.976C27.215 0.976 26.341 1.705 26.341 2.648C26.341 3.245 26.784 3.799 27.406 4.041C27.551 4.116 28.284 4.848 28.381 4.877C28.571 4.907 28.129 4.233 28.293 4.227C29.37 4.233 30.243 3.504 30.243 2.647C30.243 1.705 29.37 0.976 28.293 0.976V0.976ZM34.146 4.878C35.224 4.878 36.098 5.608 36.098 6.536C36.098 7.147 35.655 7.701 34.983 7.999C34.888 8.019 34.156 8.75 34.053 8.779C33.868 8.81 34.31 8.136 34.146 8.097C33.069 8.136 32.196 7.407 32.196 6.537C32.196 5.607 33.069 4.878 34.146 4.878V4.878ZM9.756 12.683C10.295 12.683 10.732 13.048 10.732 13.478C10.732 13.818 10.51 14.095 10.174 14.2C10.127 14.253 9.761 14.619 9.686 14.634C9.616 14.649 9.838 14.312 9.756 14.344C9.217 14.312 8.78 13.947 8.78 13.478C8.78 13.048 9.217 12.683 9.756 12.683ZM30.3 13.659C31.322 13.659 32.195 14.388 32.195 15.265C32.195 15.928 31.752 16.482 31.08 16.757C30.986 16.799 30.253 17.531 30.077 17.56C29.965 17.59 30.407 16.916 30.3 16.871C29.166 16.916 28.293 16.187 28.293 15.265C28.293 14.388 29.166 13.659 30.3 13.659V13.659ZM39.024 15.61C39.564 15.61 40 15.974 40 16.404C40 16.744 39.779 17.021 39.443 17.127C39.395 17.18 39.029 17.546 38.955 17.56C38.885 17.576 39.106 17.239 39.025 17.271C38.485 17.239 38.049 16.874 38.049 16.404C38.049 15.974 38.486 15.61 39.024 15.61V15.61ZM35.664 18.537C36.957 18.537 38.049 19.448 38.049 20.578C38.049 21.373 37.495 22.066 36.639 22.393C36.537 22.463 35.621 23.377 35.447 23.413C35.261 23.452 35.814 22.609 35.664 22.619C34.263 22.609 33.171 21.697 33.171 20.578C33.171 19.448 34.263 18.537 35.664 18.537ZM19.546 25.366C18.973 25.366 18.536 25.73 18.536 26.202C18.536 26.501 18.758 26.778 19.075 26.899C19.141 26.936 19.508 27.302 19.545 27.317C19.651 27.332 19.43 26.995 19.545 26.968C20.051 26.995 20.488 26.63 20.488 26.202C20.488 25.73 20.051 25.366 19.546 25.366ZM73.98 28.958H69.84V20.102H62.14V28.958H58V9.224H62.14V16.669H69.84V9.224H73.98V28.958V28.958ZM109.545 17.214C107.193 17.214 106.015 18.69 106.015 21.642C106.015 24.615 107.193 26.102 109.545 26.102C111.898 26.102 113.075 24.615 113.075 21.642C113.075 18.69 111.898 17.214 109.545 17.214ZM109.545 13.941C110.7 13.941 111.738 14.123 112.658 14.487C113.578 14.85 114.358 15.369 115 16.043C115.642 16.717 116.133 17.53 116.476 18.481C116.818 19.433 116.989 20.487 116.989 21.642C116.989 22.797 116.813 23.85 116.459 24.802C116.107 25.755 115.609 26.568 114.968 27.242C114.311 27.9255 113.511 28.4564 112.626 28.797C111.706 29.161 110.679 29.343 109.546 29.343C108.369 29.343 107.316 29.155 106.385 28.781C105.455 28.407 104.668 27.883 104.026 27.209C103.385 26.535 102.893 25.722 102.55 24.771C102.208 23.819 102.037 22.776 102.037 21.642C102.037 20.487 102.213 19.439 102.567 18.497C102.919 17.557 103.417 16.749 104.058 16.075C104.7 15.401 105.486 14.877 106.417 14.503C107.347 14.128 108.39 13.941 109.545 13.941V13.941ZM96.62 9H100.47V28.958H96.62V9ZM90.88 9H94.731V28.958H90.881V9H90.88ZM85.366 20.23C85.324 19.14 85.008 18.332 84.42 17.808C83.8651 17.2966 83.1366 17.0153 82.382 17.021C81.591 17.021 80.917 17.3 80.361 17.856C79.804 18.412 79.484 19.203 79.398 20.23H85.366V20.23ZM79.27 22.669C79.334 23.749 79.655 24.621 80.232 25.279C80.81 25.936 81.58 26.262 82.542 26.262C83.162 26.262 83.719 26.118 84.211 25.824C84.703 25.53 85.024 25.139 85.174 24.658H89.153C88.703 26.156 87.912 27.311 86.778 28.123C85.644 28.936 84.296 29.343 82.735 29.343C77.858 29.343 75.419 26.69 75.419 21.385C75.419 19.117 76.029 17.31 77.249 15.963C78.467 14.615 80.211 13.941 82.479 13.941C87.056 13.941 89.345 16.851 89.345 22.669H79.269H79.27ZM129.468 12.689H123.5V28.958H119.36V12.69H113.425V9.224H129.468V12.69V12.689ZM155.092 19.717L159.872 28.957H155.541L152.331 22.38L150.439 24.337V28.957H146.589V9H150.439V19.909L155.252 14.326H160L155.09 19.717H155.092ZM140.848 9H144.699V28.958H140.849V9H140.848ZM135.11 21.802C134.725 22.123 134.051 22.38 133.089 22.572C131.762 22.829 130.864 23.134 130.393 23.487C129.923 23.84 129.687 24.327 129.687 24.947C129.687 26.037 130.265 26.583 131.42 26.583C131.912 26.583 132.388 26.513 132.848 26.375C133.308 26.235 133.709 26.027 134.051 25.749C134.4 25.4618 134.68 25.0994 134.869 24.689C135.073 24.262 135.174 23.77 135.174 23.214C135.174 23.044 135.169 22.808 135.158 22.508C135.148 22.208 135.131 21.974 135.11 21.802V21.802ZM132.736 13.942C134.81 13.942 136.366 14.433 137.404 15.417C138.442 16.401 138.96 17.834 138.96 19.717V28.957H135.367C135.322 28.7759 135.279 28.5942 135.238 28.412C135.193 28.2002 135.161 27.9858 135.142 27.77C134.672 28.263 134.062 28.631 133.313 28.877C132.565 29.124 131.698 29.247 130.713 29.247C129.238 29.247 128.056 28.883 127.168 28.155C126.281 27.428 125.838 26.423 125.838 25.139C125.838 24.134 126.003 23.332 126.335 22.733C126.659 22.1415 127.142 21.6524 127.73 21.321C128.329 20.979 129.04 20.722 129.864 20.551C130.687 20.38 131.581 20.231 132.544 20.101C133.314 19.995 133.918 19.824 134.356 19.588C134.795 19.353 135.014 19.021 135.014 18.593C135.014 18.038 134.757 17.62 134.244 17.342C133.721 17.0621 133.137 16.9186 132.544 16.925C131.859 16.925 131.286 17.123 130.827 17.519C130.367 17.914 130.093 18.444 130.007 19.107H126.318C126.447 17.481 127.002 16.214 127.987 15.305C128.971 14.395 130.553 13.941 132.736 13.941V13.942Z" clip-rule="evenodd"/>
    </g>
</svg>
